<svg width="960" height="250" viewBox="115 75 960 250" xmlns="http://www.w3.org/2000/svg" xmlns:xlink="http://www.w3.org/1999/xlink" overflow="hidden"><defs><pattern width="10" height="10" patternUnits="userSpaceOnUse" id="djs-grid-pattern-340456" overflow="hidden"><circle cx="0.5" cy="0.5" r="0.5" fill="#CCCCCC"/></pattern></defs><g><g display="inline" transform="translate(120 80)"><g><rect x="0" y="0" rx="0" ry="0" width="950" height="240" stroke="#22242A" stroke-width="1.5" stroke-linecap="round" stroke-linejoin="round" fill="#FFFFFF" fill-opacity="0.95"/><path d="M30 0 30 240" stroke="#22242A" stroke-width="1.5" stroke-linecap="round" stroke-linejoin="round" fill="none"/><text fill="#22242A" font-family="Arial,Arial" font-weight="400" font-size="12" transform="matrix(-1.83697e-16 -1 1 -1.83697e-16 0 240)"><tspan x="9.27539" y="11.4">Procedimiento de Conciliación Bancaria y </tspan><tspan x="69.9785" y="25.8">Gestión de Divisas</tspan></text></g><rect x="0" y="0" width="950" height="240" stroke="#FFFFFF" stroke-width="15" stroke-opacity="0" fill="none"/><rect x="0" y="0" width="950" height="240" stroke="#FFFFFF" stroke-width="15" stroke-opacity="0" fill="none"/><rect x="0" y="0" width="30" height="240" stroke="#FFFFFF" stroke-width="15" stroke-opacity="0" fill="none"/><rect x="-5" y="-5" rx="4" width="960" height="250" fill="none"/></g><g><g><g display="inline" transform="translate(150 200)"><g><rect x="0" y="0" rx="0" ry="0" width="920" height="120" stroke="#22242A" stroke-width="1.5" stroke-linecap="round" stroke-linejoin="round" fill="#FFFFFF" fill-opacity="0.25"/><text fill="#22242A" font-family="Arial,Arial" font-weight="400" font-size="12" transform="matrix(-1.83697e-16 -1 1 -1.83697e-16 0 120)"><tspan x="12.9727" y="18.6">Contador Externo</tspan></text></g><rect x="0" y="0" width="920" height="120" stroke="#FFFFFF" stroke-width="15" stroke-opacity="0" fill="none"/><rect x="0" y="0" width="920" height="120" stroke="#FFFFFF" stroke-width="15" stroke-opacity="0" fill="none"/><rect x="0" y="0" width="30" height="120" stroke="#FFFFFF" stroke-width="15" stroke-opacity="0" fill="none"/><rect x="-5" y="-5" rx="4" width="930" height="130" fill="none"/></g></g><g><g display="inline" transform="translate(150 80)"><g><rect x="0" y="0" rx="0" ry="0" width="920" height="120" stroke="#22242A" stroke-width="1.5" stroke-linecap="round" stroke-linejoin="round" fill="#FFFFFF" fill-opacity="0.25"/><text fill="#22242A" font-family="Arial,Arial" font-weight="400" font-size="12" transform="matrix(-1.83697e-16 -1 1 -1.83697e-16 0 120)"><tspan x="28.9746" y="18.6">Subgerente</tspan></text></g><rect x="0" y="0" width="920" height="120" stroke="#FFFFFF" stroke-width="15" stroke-opacity="0" fill="none"/><rect x="0" y="0" width="920" height="120" stroke="#FFFFFF" stroke-width="15" stroke-opacity="0" fill="none"/><rect x="0" y="0" width="30" height="120" stroke="#FFFFFF" stroke-width="15" stroke-opacity="0" fill="none"/><rect x="-5" y="-5" rx="4" width="930" height="130" fill="none"/></g></g><g><g display="inline" transform="translate(200 122)"><g><circle cx="18" cy="18" r="18" stroke="#22242A" stroke-width="2" stroke-linecap="round" stroke-linejoin="round" fill="#FFFFFF" fill-opacity="0.95"/></g><rect x="0" y="0" width="36" height="36" stroke="#FFFFFF" stroke-width="15" stroke-opacity="0" fill="none"/><circle cx="18" cy="18" r="23" fill="none"/></g></g><g><g display="inline" transform="translate(205 165)"><g><text fill="#22242A" font-family="Arial,Arial" font-weight="400" font-size="11"><tspan x="0" y="9.9">Inicio</tspan></text></g><rect x="0" y="0" width="26" height="14" stroke="#FFFFFF" stroke-width="15" stroke-opacity="0" fill="none"/><rect x="-5" y="-5" rx="4" width="36" height="24" fill="none"/></g></g><g><g display="inline" transform="translate(290 100)"><g><rect x="0" y="0" rx="10" ry="10" width="100" height="80" stroke="#22242A" stroke-width="2" stroke-linecap="round" stroke-linejoin="round" fill="#FFFFFF" fill-opacity="0.95"/><text fill="#22242A" font-family="Arial,Arial" font-weight="400" font-size="12"><tspan x="28.3262" y="22">Verificar </tspan><tspan x="14.9727" y="36.4">Abonos en la </tspan><tspan x="22.3115" y="50.8">Cuenta de </tspan><tspan x="29.3252" y="65.2">Dólares</tspan></text></g><rect x="0" y="0" width="100" height="80" stroke="#FFFFFF" stroke-width="15" stroke-opacity="0" fill="none"/><rect x="-5" y="-5" rx="14" width="110" height="90" fill="none"/></g></g><g><g display="inline" transform="translate(440 100)"><g><rect x="0" y="0" rx="10" ry="10" width="100" height="80" stroke="#22242A" stroke-width="2" stroke-linecap="round" stroke-linejoin="round" fill="#FFFFFF" fill-opacity="0.95"/><text fill="#22242A" font-family="Arial,Arial" font-weight="400" font-size="12"><tspan x="27.9951" y="22">Notificar </tspan><tspan x="13.3086" y="36.4">Recepción de </tspan><tspan x="26.6504" y="50.8">Pagos al </tspan><tspan x="25.3174" y="65.2">Contador</tspan></text></g><rect x="0" y="0" width="100" height="80" stroke="#FFFFFF" stroke-width="15" stroke-opacity="0" fill="none"/><rect x="-5" y="-5" rx="14" width="110" height="90" fill="none"/></g></g><g><g display="inline" transform="translate(590 220)"><g><rect x="0" y="0" rx="10" ry="10" width="100" height="80" stroke="#22242A" stroke-width="2" stroke-linecap="round" stroke-linejoin="round" fill="#FFFFFF" fill-opacity="0.95"/><text fill="#22242A" font-family="Arial,Arial" font-weight="400" font-size="12"><tspan x="27.9922" y="22">Realizar </tspan><tspan x="29.9873" y="36.4">Asiento </tspan><tspan x="7.96777" y="50.8">Contable según</tspan><tspan x="7.86816" y="65.2">Tipo de Cambio</tspan></text></g><rect x="0" y="0" width="100" height="80" stroke="#FFFFFF" stroke-width="15" stroke-opacity="0" fill="none"/><rect x="-5" y="-5" rx="14" width="110" height="90" fill="none"/></g></g><g><g display="inline" transform="translate(740 220)"><g><rect x="0" y="0" rx="10" ry="10" width="100" height="80" stroke="#22242A" stroke-width="2" stroke-linecap="round" stroke-linejoin="round" fill="#FFFFFF" fill-opacity="0.95"/><text fill="#22242A" font-family="Arial,Arial" font-weight="400" font-size="12"><tspan x="27.9893" y="22">Generar </tspan><tspan x="20.3135" y="36.4">Reporte de </tspan><tspan x="14.6475" y="50.8">Flujo de Caja </tspan><tspan x="8.64453" y="65.2">para Impuestos</tspan></text></g><rect x="0" y="0" width="100" height="80" stroke="#FFFFFF" stroke-width="15" stroke-opacity="0" fill="none"/><rect x="-5" y="-5" rx="14" width="110" height="90" fill="none"/></g></g><g><g display="inline" transform="translate(890 242)"><g><circle cx="18" cy="18" r="18" stroke="#22242A" stroke-width="4" stroke-linecap="round" stroke-linejoin="round" fill="#FFFFFF" fill-opacity="0.95"/></g><rect x="0" y="0" width="36" height="36" stroke="#FFFFFF" stroke-width="15" stroke-opacity="0" fill="none"/><circle cx="18" cy="18" r="24" fill="none"/></g></g><g><g display="inline" transform="translate(900 285)"><g><text fill="#22242A" font-family="Arial,Arial" font-weight="400" font-size="11"><tspan x="0" y="9.9">Fin</tspan></text></g><rect x="0" y="0" width="16" height="14" stroke="#FFFFFF" stroke-width="15" stroke-opacity="0" fill="none"/><rect x="-5" y="-5" rx="4" width="26" height="24" fill="none"/></g></g><g><g display="inline"><g><defs><marker refX="11" refY="10" markerWidth="10" markerHeight="10" markerUnits="strokeWidth" orient="auto" viewBox="0 0 20 20" id="marker-10lbiipk04401nbxe8d24ntdq" overflow="hidden"><path d="M1 5 11 10 1 15Z" stroke="#22242A" stroke-width="1" stroke-linecap="round" stroke-linejoin="round" fill="#22242A"/></marker></defs><path d="M236 140 290 140" stroke="#22242A" stroke-width="2" stroke-linecap="round" stroke-linejoin="round" fill="none" marker-end="url(#marker-10lbiipk04401nbxe8d24ntdq)"/></g><path d="M236 140 290 140" stroke="#FFFFFF" stroke-width="15" stroke-opacity="0" fill="none"/><rect x="231" y="135" rx="4" width="64" height="10" fill="none"/></g></g><g><g display="inline"><g><defs><marker refX="11" refY="10" markerWidth="10" markerHeight="10" markerUnits="strokeWidth" orient="auto" viewBox="0 0 20 20" id="marker-drwmb717j2nis28a2904ghoc9" overflow="hidden"><path d="M1 5 11 10 1 15Z" stroke="#22242A" stroke-width="1" stroke-linecap="round" stroke-linejoin="round" fill="#22242A"/></marker></defs><path d="M390 140 440 140" stroke="#22242A" stroke-width="2" stroke-linecap="round" stroke-linejoin="round" fill="none" marker-end="url(#marker-drwmb717j2nis28a2904ghoc9)"/></g><path d="M390 140 440 140" stroke="#FFFFFF" stroke-width="15" stroke-opacity="0" fill="none"/><rect x="385" y="135" rx="4" width="60" height="10" fill="none"/></g></g><g><g display="inline"><g><defs><marker refX="11" refY="10" markerWidth="10" markerHeight="10" markerUnits="strokeWidth" orient="auto" viewBox="0 0 20 20" id="marker-1rexn4peyn2psunu2y69hux3i" overflow="hidden"><path d="M1 5 11 10 1 15Z" stroke="#22242A" stroke-width="1" stroke-linecap="round" stroke-linejoin="round" fill="#22242A"/></marker></defs><path d="M540 140 560 140C562.5 140 565 142.5 565 145L565 255C565 257.5 567.5 260 570 260L590 260" stroke="#22242A" stroke-width="2" stroke-linecap="round" stroke-linejoin="round" fill="none" marker-end="url(#marker-1rexn4peyn2psunu2y69hux3i)"/></g><path d="M540 140 565 140 565 260 590 260" stroke="#FFFFFF" stroke-width="15" stroke-opacity="0" fill="none"/><rect x="535" y="135" rx="4" width="60" height="130" fill="none"/></g></g><g><g display="inline"><g><defs><marker refX="11" refY="10" markerWidth="10" markerHeight="10" markerUnits="strokeWidth" orient="auto" viewBox="0 0 20 20" id="marker-cq19xhyyixjdcu2va4nqe9h9k" overflow="hidden"><path d="M1 5 11 10 1 15Z" stroke="#22242A" stroke-width="1" stroke-linecap="round" stroke-linejoin="round" fill="#22242A"/></marker></defs><path d="M690 260 740 260" stroke="#22242A" stroke-width="2" stroke-linecap="round" stroke-linejoin="round" fill="none" marker-end="url(#marker-cq19xhyyixjdcu2va4nqe9h9k)"/></g><path d="M690 260 740 260" stroke="#FFFFFF" stroke-width="15" stroke-opacity="0" fill="none"/><rect x="685" y="255" rx="4" width="60" height="10" fill="none"/></g></g><g><g display="inline"><g><defs><marker refX="11" refY="10" markerWidth="10" markerHeight="10" markerUnits="strokeWidth" orient="auto" viewBox="0 0 20 20" id="marker-clz7dzcgann5v5q7sswzumsty" overflow="hidden"><path d="M1 5 11 10 1 15Z" stroke="#22242A" stroke-width="1" stroke-linecap="round" stroke-linejoin="round" fill="#22242A"/></marker></defs><path d="M840 260 890 260" stroke="#22242A" stroke-width="2" stroke-linecap="round" stroke-linejoin="round" fill="none" marker-end="url(#marker-clz7dzcgann5v5q7sswzumsty)"/></g><path d="M840 260 890 260" stroke="#FFFFFF" stroke-width="15" stroke-opacity="0" fill="none"/><rect x="835" y="255" rx="4" width="60" height="10" fill="none"/></g></g></g></g></svg>