<svg width="1110" height="250" viewBox="115 75 1110 250" xmlns="http://www.w3.org/2000/svg" xmlns:xlink="http://www.w3.org/1999/xlink" overflow="hidden"><defs><pattern width="10" height="10" patternUnits="userSpaceOnUse" id="djs-grid-pattern-897404" overflow="hidden"><circle cx="0.5" cy="0.5" r="0.5" fill="#CCCCCC"/></pattern></defs><g><g display="inline" transform="translate(120 80)"><g><rect x="0" y="0" rx="0" ry="0" width="1100" height="240" stroke="#22242A" stroke-width="1.5" stroke-linecap="round" stroke-linejoin="round" fill="#FFFFFF" fill-opacity="0.95"/><path d="M30 0 30 240" stroke="#22242A" stroke-width="1.5" stroke-linecap="round" stroke-linejoin="round" fill="none"/><text fill="#22242A" font-family="Arial,Arial" font-weight="400" font-size="12" transform="matrix(-1.83697e-16 -1 1 -1.83697e-16 0 240)"><tspan x="17.9443" y="11.4">Procedimieto de Monitoreo de Margen </tspan><tspan x="67.6436" y="25.8">Operativo y Utilidad</tspan></text></g><rect x="0" y="0" width="1100" height="240" stroke="#FFFFFF" stroke-width="15" stroke-opacity="0" fill="none"/><rect x="0" y="0" width="1100" height="240" stroke="#FFFFFF" stroke-width="15" stroke-opacity="0" fill="none"/><rect x="0" y="0" width="30" height="240" stroke="#FFFFFF" stroke-width="15" stroke-opacity="0" fill="none"/><rect x="-5" y="-5" rx="4" width="1110" height="250" fill="none"/></g><g><g><g display="inline" transform="translate(150 200)"><g><rect x="0" y="0" rx="0" ry="0" width="1070" height="120" stroke="#22242A" stroke-width="1.5" stroke-linecap="round" stroke-linejoin="round" fill="#FFFFFF" fill-opacity="0.25"/><text fill="#22242A" font-family="Arial,Arial" font-weight="400" font-size="12" transform="matrix(-1.83697e-16 -1 1 -1.83697e-16 0 120)"><tspan x="12.6416" y="18.6">Gerencia General</tspan></text></g><rect x="0" y="0" width="1070" height="120" stroke="#FFFFFF" stroke-width="15" stroke-opacity="0" fill="none"/><rect x="0" y="0" width="1070" height="120" stroke="#FFFFFF" stroke-width="15" stroke-opacity="0" fill="none"/><rect x="0" y="0" width="30" height="120" stroke="#FFFFFF" stroke-width="15" stroke-opacity="0" fill="none"/><rect x="-5" y="-5" rx="4" width="1080" height="130" fill="none"/></g></g><g><g display="inline" transform="translate(150 80)"><g><rect x="0" y="0" rx="0" ry="0" width="1070" height="120" stroke="#22242A" stroke-width="1.5" stroke-linecap="round" stroke-linejoin="round" fill="#FFFFFF" fill-opacity="0.25"/><text fill="#22242A" font-family="Arial,Arial" font-weight="400" font-size="12" transform="matrix(-1.83697e-16 -1 1 -1.83697e-16 0 120)"><tspan x="28.9746" y="18.6">Subgerente</tspan></text></g><rect x="0" y="0" width="1070" height="120" stroke="#FFFFFF" stroke-width="15" stroke-opacity="0" fill="none"/><rect x="0" y="0" width="1070" height="120" stroke="#FFFFFF" stroke-width="15" stroke-opacity="0" fill="none"/><rect x="0" y="0" width="30" height="120" stroke="#FFFFFF" stroke-width="15" stroke-opacity="0" fill="none"/><rect x="-5" y="-5" rx="4" width="1080" height="130" fill="none"/></g></g><g><g display="inline" transform="translate(200 122)"><g><circle cx="18" cy="18" r="18" stroke="#22242A" stroke-width="2" stroke-linecap="round" stroke-linejoin="round" fill="#FFFFFF" fill-opacity="0.95"/></g><rect x="0" y="0" width="36" height="36" stroke="#FFFFFF" stroke-width="15" stroke-opacity="0" fill="none"/><circle cx="18" cy="18" r="23" fill="none"/></g></g><g><g display="inline" transform="translate(205 165)"><g><text fill="#22242A" font-family="Arial,Arial" font-weight="400" font-size="11"><tspan x="0" y="9.9">Inicio</tspan></text></g><rect x="0" y="0" width="26" height="14" stroke="#FFFFFF" stroke-width="15" stroke-opacity="0" fill="none"/><rect x="-5" y="-5" rx="4" width="36" height="24" fill="none"/></g></g><g><g display="inline" transform="translate(290 100)"><g><rect x="0" y="0" rx="10" ry="10" width="100" height="80" stroke="#22242A" stroke-width="2" stroke-linecap="round" stroke-linejoin="round" fill="#FFFFFF" fill-opacity="0.95"/><text fill="#22242A" font-family="Arial,Arial" font-weight="400" font-size="12"><tspan x="21.3184" y="14.8">Consolidar </tspan><tspan x="26.9873" y="29.2">Ingresos </tspan><tspan x="30.9893" y="43.6">Totales </tspan><tspan x="12.6436" y="58">Mensuales en </tspan><tspan x="37.332" y="72.4">USD</tspan></text></g><rect x="0" y="0" width="100" height="80" stroke="#FFFFFF" stroke-width="15" stroke-opacity="0" fill="none"/><rect x="-5" y="-5" rx="14" width="110" height="90" fill="none"/></g></g><g><g display="inline" transform="translate(440 100)"><g><rect x="0" y="0" rx="10" ry="10" width="100" height="80" stroke="#22242A" stroke-width="2" stroke-linecap="round" stroke-linejoin="round" fill="#FFFFFF" fill-opacity="0.95"/><text fill="#22242A" font-family="Arial,Arial" font-weight="400" font-size="12"><tspan x="11.9844" y="22">Deducir Costo </tspan><tspan x="21.6494" y="36.4">de Alquiler </tspan><tspan x="7.31738" y="50.8">Base a Familias</tspan><tspan x="17.9844" y="65.2">Propietarias</tspan></text></g><rect x="0" y="0" width="100" height="80" stroke="#FFFFFF" stroke-width="15" stroke-opacity="0" fill="none"/><rect x="-5" y="-5" rx="14" width="110" height="90" fill="none"/></g></g><g><g display="inline" transform="translate(590 100)"><g><rect x="0" y="0" rx="10" ry="10" width="100" height="80" stroke="#22242A" stroke-width="2" stroke-linecap="round" stroke-linejoin="round" fill="#FFFFFF" fill-opacity="0.95"/><text fill="#22242A" font-family="Arial,Arial" font-weight="400" font-size="12"><tspan x="11.9873" y="14.8">Restar Costos </tspan><tspan x="18.9775" y="29.2">de Soporte: </tspan><tspan x="22.6455" y="43.6">Seguridad </tspan><tspan x="27.3242" y="58">Armada, </tspan><tspan x="25.9883" y="72.4">Limpieza</tspan></text></g><rect x="0" y="0" width="100" height="80" stroke="#FFFFFF" stroke-width="15" stroke-opacity="0" fill="none"/><rect x="-5" y="-5" rx="14" width="110" height="90" fill="none"/></g></g><g><g display="inline" transform="translate(740 100)"><g><rect x="0" y="0" rx="10" ry="10" width="100" height="80" stroke="#22242A" stroke-width="2" stroke-linecap="round" stroke-linejoin="round" fill="#FFFFFF" fill-opacity="0.95"/><text fill="#22242A" font-family="Arial,Arial" font-weight="400" font-size="12"><tspan x="27.9922" y="22">Calcular </tspan><tspan x="15.3154" y="36.4">Margen Neto </tspan><tspan x="25.6543" y="50.8">por Nave </tspan><tspan x="25.6543" y="65.2">Industrial</tspan></text></g><rect x="0" y="0" width="100" height="80" stroke="#FFFFFF" stroke-width="15" stroke-opacity="0" fill="none"/><rect x="-5" y="-5" rx="14" width="110" height="90" fill="none"/></g></g><g><g display="inline" transform="translate(890 220)"><g><rect x="0" y="0" rx="10" ry="10" width="100" height="80" stroke="#22242A" stroke-width="2" stroke-linecap="round" stroke-linejoin="round" fill="#FFFFFF" fill-opacity="0.95"/><text fill="#22242A" font-family="Arial,Arial" font-weight="400" font-size="12"><tspan x="28.3232" y="22">Analizar </tspan><tspan x="21.3184" y="36.4">Informe de </tspan><tspan x="16.6426" y="50.8">Rentabilidad </tspan><tspan x="27.3213" y="65.2">Mensual</tspan></text></g><rect x="0" y="0" width="100" height="80" stroke="#FFFFFF" stroke-width="15" stroke-opacity="0" fill="none"/><rect x="-5" y="-5" rx="14" width="110" height="90" fill="none"/></g></g><g><g display="inline" transform="translate(1040 242)"><g><circle cx="18" cy="18" r="18" stroke="#22242A" stroke-width="4" stroke-linecap="round" stroke-linejoin="round" fill="#FFFFFF" fill-opacity="0.95"/></g><rect x="0" y="0" width="36" height="36" stroke="#FFFFFF" stroke-width="15" stroke-opacity="0" fill="none"/><circle cx="18" cy="18" r="24" fill="none"/></g></g><g><g display="inline" transform="translate(1050 285)"><g><text fill="#22242A" font-family="Arial,Arial" font-weight="400" font-size="11"><tspan x="0" y="9.9">Fin</tspan></text></g><rect x="0" y="0" width="16" height="14" stroke="#FFFFFF" stroke-width="15" stroke-opacity="0" fill="none"/><rect x="-5" y="-5" rx="4" width="26" height="24" fill="none"/></g></g><g><g display="inline"><g><defs><marker refX="11" refY="10" markerWidth="10" markerHeight="10" markerUnits="strokeWidth" orient="auto" viewBox="0 0 20 20" id="marker-4e0t1t118jyj0jdaavknfsfu8" overflow="hidden"><path d="M1 5 11 10 1 15Z" stroke="#22242A" stroke-width="1" stroke-linecap="round" stroke-linejoin="round" fill="#22242A"/></marker></defs><path d="M236 140 290 140" stroke="#22242A" stroke-width="2" stroke-linecap="round" stroke-linejoin="round" fill="none" marker-end="url(#marker-4e0t1t118jyj0jdaavknfsfu8)"/></g><path d="M236 140 290 140" stroke="#FFFFFF" stroke-width="15" stroke-opacity="0" fill="none"/><rect x="231" y="135" rx="4" width="64" height="10" fill="none"/></g></g><g><g display="inline"><g><defs><marker refX="11" refY="10" markerWidth="10" markerHeight="10" markerUnits="strokeWidth" orient="auto" viewBox="0 0 20 20" id="marker-eppgqtc047gkurwk5w3of8923" overflow="hidden"><path d="M1 5 11 10 1 15Z" stroke="#22242A" stroke-width="1" stroke-linecap="round" stroke-linejoin="round" fill="#22242A"/></marker></defs><path d="M390 140 440 140" stroke="#22242A" stroke-width="2" stroke-linecap="round" stroke-linejoin="round" fill="none" marker-end="url(#marker-eppgqtc047gkurwk5w3of8923)"/></g><path d="M390 140 440 140" stroke="#FFFFFF" stroke-width="15" stroke-opacity="0" fill="none"/><rect x="385" y="135" rx="4" width="60" height="10" fill="none"/></g></g><g><g display="inline"><g><defs><marker refX="11" refY="10" markerWidth="10" markerHeight="10" markerUnits="strokeWidth" orient="auto" viewBox="0 0 20 20" id="marker-4x4od19o3k2oby6y25s1ohq7v" overflow="hidden"><path d="M1 5 11 10 1 15Z" stroke="#22242A" stroke-width="1" stroke-linecap="round" stroke-linejoin="round" fill="#22242A"/></marker></defs><path d="M550 140 590 140" stroke="#22242A" stroke-width="2" stroke-linecap="round" stroke-linejoin="round" fill="none" marker-end="url(#marker-4x4od19o3k2oby6y25s1ohq7v)"/></g><path d="M550 140 590 140" stroke="#FFFFFF" stroke-width="15" stroke-opacity="0" fill="none"/><rect x="545" y="135" rx="4" width="50" height="10" fill="none"/></g></g><g><g display="inline"><g><defs><marker refX="11" refY="10" markerWidth="10" markerHeight="10" markerUnits="strokeWidth" orient="auto" viewBox="0 0 20 20" id="marker-4n09safp9045d151k5ahfna89" overflow="hidden"><path d="M1 5 11 10 1 15Z" stroke="#22242A" stroke-width="1" stroke-linecap="round" stroke-linejoin="round" fill="#22242A"/></marker></defs><path d="M690 140 740 140" stroke="#22242A" stroke-width="2" stroke-linecap="round" stroke-linejoin="round" fill="none" marker-end="url(#marker-4n09safp9045d151k5ahfna89)"/></g><path d="M690 140 740 140" stroke="#FFFFFF" stroke-width="15" stroke-opacity="0" fill="none"/><rect x="685" y="135" rx="4" width="60" height="10" fill="none"/></g></g><g><g display="inline"><g><defs><marker refX="11" refY="10" markerWidth="10" markerHeight="10" markerUnits="strokeWidth" orient="auto" viewBox="0 0 20 20" id="marker-4tcj3v5txqrcleav8fm62eayn" overflow="hidden"><path d="M1 5 11 10 1 15Z" stroke="#22242A" stroke-width="1" stroke-linecap="round" stroke-linejoin="round" fill="#22242A"/></marker></defs><path d="M840 140 860 140C862.5 140 865 142.5 865 145L865 255C865 257.5 867.5 260 870 260L890 260" stroke="#22242A" stroke-width="2" stroke-linecap="round" stroke-linejoin="round" fill="none" marker-end="url(#marker-4tcj3v5txqrcleav8fm62eayn)"/></g><path d="M840 140 865 140 865 260 890 260" stroke="#FFFFFF" stroke-width="15" stroke-opacity="0" fill="none"/><rect x="835" y="135" rx="4" width="60" height="130" fill="none"/></g></g><g><g display="inline"><g><defs><marker refX="11" refY="10" markerWidth="10" markerHeight="10" markerUnits="strokeWidth" orient="auto" viewBox="0 0 20 20" id="marker-831l7ybihnfnb24cavidej9mr" overflow="hidden"><path d="M1 5 11 10 1 15Z" stroke="#22242A" stroke-width="1" stroke-linecap="round" stroke-linejoin="round" fill="#22242A"/></marker></defs><path d="M990 260 1040 260" stroke="#22242A" stroke-width="2" stroke-linecap="round" stroke-linejoin="round" fill="none" marker-end="url(#marker-831l7ybihnfnb24cavidej9mr)"/></g><path d="M990 260 1040 260" stroke="#FFFFFF" stroke-width="15" stroke-opacity="0" fill="none"/><rect x="985" y="255" rx="4" width="60" height="10" fill="none"/></g></g></g></g></svg>